<?xml version="1.0" encoding="UTF-8"?>
<svg viewBox="0 0 400 200" xmlns="http://www.w3.org/2000/svg">
  <!-- Output tracing - footsteps/path, execution flow, magnifying glass -->
  <g opacity="0.12">
    <!-- Execution path with steps -->
    <path d="M 50 150 Q 100 130, 150 140 T 250 120 T 350 140" 
          fill="none" 
          stroke="#a78bfa" 
          stroke-width="3" 
          stroke-dasharray="10,5"
          stroke-linecap="round"/>

    <!-- Step markers along the path -->
    <circle cx="50" cy="150" r="8" fill="#8b5cf6"/>
    <text x="47" y="154" font-family="monospace" font-size="10" fill="white" font-weight="bold">1</text>

    <circle cx="125" cy="135" r="8" fill="#8b5cf6"/>
    <text x="122" y="139" font-family="monospace" font-size="10" fill="white" font-weight="bold">2</text>

    <circle cx="200" cy="130" r="8" fill="#8b5cf6"/>
    <text x="197" y="134" font-family="monospace" font-size="10" fill="white" font-weight="bold">3</text>

    <circle cx="275" cy="125" r="8" fill="#8b5cf6"/>
    <text x="272" y="129" font-family="monospace" font-size="10" fill="white" font-weight="bold">4</text>

    <circle cx="350" cy="140" r="8" fill="#a78bfa"/>
    <text x="347" y="144" font-family="monospace" font-size="10" fill="white" font-weight="bold">5</text>

    <!-- Magnifying glass examining code -->
    <circle cx="100" cy="70" r="30" fill="none" stroke="#8b5cf6" stroke-width="3"/>
    <line x1="120" y1="90" x2="145" y2="115" stroke="#8b5cf6" stroke-width="4" stroke-linecap="round"/>

    <!-- Code being examined under magnifying glass -->
    <g opacity="0.7">
      <line x1="85" y1="65" x2="105" y2="65" stroke="#a78bfa" stroke-width="2"/>
      <line x1="85" y1="72" x2="115" y2="72" stroke="#a78bfa" stroke-width="2"/>
      <line x1="85" y1="79" x2="100" y2="79" stroke="#a78bfa" stroke-width="2"/>
    </g>

    <!-- Output console/terminal -->
    <rect x="260" y="40" width="110" height="70" rx="6" fill="rgba(139, 92, 246, 0.1)" stroke="#8b5cf6" stroke-width="2"/>
    <line x1="260" y1="55" x2="370" y2="55" stroke="#8b5cf6" stroke-width="2"/>
    <text x="268" y="50" font-family="monospace" font-size="10" fill="#a78bfa" font-weight="bold">OUTPUT</text>

    <!-- Output lines -->
    <line x1="270" y1="70" x2="340" y2="70" stroke="#c4b5fd" stroke-width="2"/>
    <line x1="270" y1="82" x2="350" y2="82" stroke="#c4b5fd" stroke-width="2"/>
    <line x1="270" y1="94" x2="320" y2="94" stroke="#c4b5fd" stroke-width="2"/>
  </g>
</svg>