<?xml version="1.0" encoding="UTF-8"?>
<svg viewBox="0 0 320 240" xmlns="http://www.w3.org/2000/svg">
  <defs>
    <linearGradient id="spaceSky" x1="0%" y1="0%" x2="0%" y2="100%">
      <stop offset="0%" stop-color="#1a1a2e" />
      <stop offset="50%" stop-color="#0f0f1e" />
      <stop offset="100%" stop-color="#050510" />
    </linearGradient>
    <radialGradient id="planetGlow" cx="50%" cy="50%" r="50%">
      <stop offset="0%" stop-color="#8b5cf6" stop-opacity="0.6" />
      <stop offset="100%" stop-color="#8b5cf6" stop-opacity="0" />
    </radialGradient>
  </defs>

  <!-- Space background -->
  <rect width="320" height="240" fill="url(#spaceSky)" />

  <!-- Stars -->
  <circle cx="30" cy="30" r="1" fill="#ffffff" opacity="0.8" />
  <circle cx="80" cy="50" r="1.5" fill="#ffffff" opacity="0.9" />
  <circle cx="150" cy="20" r="1" fill="#ffffff" opacity="0.7" />
  <circle cx="200" cy="45" r="1.2" fill="#ffffff" opacity="0.8" />
  <circle cx="270" cy="35" r="1" fill="#ffffff" opacity="0.9" />
  <circle cx="100" cy="80" r="1" fill="#ffffff" opacity="0.6" />
  <circle cx="250" cy="70" r="1.3" fill="#ffffff" opacity="0.8" />
  <circle cx="60" cy="110" r="1" fill="#ffffff" opacity="0.7" />
  <circle cx="180" cy="90" r="1.5" fill="#ffffff" opacity="0.9" />
  <circle cx="290" cy="120" r="1" fill="#ffffff" opacity="0.8" />

  <!-- Planet -->
  <circle cx="80" cy="60" r="35" fill="url(#planetGlow)" />
  <circle cx="80" cy="60" r="30" fill="#6b46a8" opacity="0.4" />
  <ellipse cx="80" cy="60" rx="40" ry="8" fill="#8b5cf6" opacity="0.2" transform="rotate(-20 80 60)" />

  <!-- Moon/satellite -->
  <circle cx="250" cy="80" r="18" fill="#4a3a5f" opacity="0.5" />
  <circle cx="247" cy="77" r="4" fill="#2d1f3f" opacity="0.7" />
  <circle cx="255" cy="85" r="3" fill="#2d1f3f" opacity="0.6" />

  <!-- Rocky terrain -->
  <path d="M0,180 Q80,160 160,175 T320,185 L320,240 L0,240 Z" fill="#1a1a2e" opacity="0.8" />
  <path d="M0,200 Q100,190 200,195 T320,200 L320,240 L0,240 Z" fill="#0f0f1e" opacity="0.9" />

  <!-- Rocks -->
  <ellipse cx="50" cy="195" rx="15" ry="8" fill="#0a0a14" opacity="0.8" />
  <ellipse cx="180" cy="200" rx="20" ry="10" fill="#0a0a14" opacity="0.7" />
  <ellipse cx="280" cy="198" rx="18" ry="9" fill="#0a0a14" opacity="0.8" />

  <!-- Rocket -->
  <g transform="translate(220, 140)">
    <!-- Body -->
    <path d="M20,60 L15,35 Q15,25 20,20 Q25,15 25,15 Q25,15 30,20 Q35,25 35,35 L30,60 Z" 
          fill="#8b5cf6" opacity="0.8" />
    <!-- Window -->
    <circle cx="25" cy="35" r="6" fill="#ec4899" opacity="0.6" />
    <circle cx="25" cy="35" r="4" fill="#1a1a2e" opacity="0.9" />
    <!-- Fins -->
    <path d="M15,55 L8,65 L15,60 Z" fill="#6366f1" opacity="0.7" />
    <path d="M35,55 L42,65 L35,60 Z" fill="#6366f1" opacity="0.7" />
    <!-- Flame -->
    <path d="M18,60 Q20,70 25,75 Q30,70 32,60 Z" fill="#ec4899" opacity="0.6" />
    <path d="M20,60 Q22,68 25,72 Q28,68 30,60 Z" fill="#f0abfc" opacity="0.7" />
  </g>

  <!-- Astronaut -->
  <g transform="translate(60, 170)">
    <!-- Body -->
    <rect x="15" y="35" width="20" height="30" rx="3" fill="#e0e0e0" opacity="0.3" />
    <!-- Helmet -->
    <circle cx="25" cy="30" r="10" fill="#f3f3f3" opacity="0.2" />
    <circle cx="25" cy="30" r="7" fill="#6366f1" opacity="0.4" />
    <!-- Arms -->
    <rect x="10" y="40" width="4" height="15" rx="2" fill="#e0e0e0" opacity="0.3" />
    <rect x="36" y="40" width="4" height="15" rx="2" fill="#e0e0e0" opacity="0.3" />
    <!-- Legs -->
    <rect x="17" y="65" width="6" height="15" rx="2" fill="#e0e0e0" opacity="0.3" />
    <rect x="27" y="65" width="6" height="15" rx="2" fill="#e0e0e0" opacity="0.3" />
    <!-- Backpack -->
    <rect x="32" y="38" width="8" height="20" rx="2" fill="#8b5cf6" opacity="0.4" />
  </g>

  <!-- Glowing particles -->
  <circle cx="140" cy="100" r="2" fill="#ec4899" opacity="0.6" />
  <circle cx="190" cy="130" r="1.5" fill="#8b5cf6" opacity="0.5" />
  <circle cx="110" cy="150" r="2" fill="#f0abfc" opacity="0.4" />
</svg>